<svg width="30" height="31" viewBox="0 0 30 31" fill="none" xmlns="http://www.w3.org/2000/svg">
<g id="steam icon">
<path id="Union" fill-rule="evenodd" clip-rule="evenodd" d="M15 30.5276C23.2843 30.5276 30 23.8118 30 15.5276C30 7.24329 23.2843 0.527557 15 0.527557C6.71573 0.527557 0 7.24329 0 15.5276C0 17.0556 0.228477 18.5302 0.653132 19.9192C0.761502 19.9388 0.936687 19.9833 1.19192 20.0581L0.793274 13.7856C0.793274 13.6706 0.987216 13.6153 1.1649 13.5647C1.26242 13.5369 1.35505 13.5104 1.40802 13.4763C1.55269 13.3849 4.53183 14.4727 4.69097 14.5449L8.50059 16.2681C9.48434 15.6472 10.661 15.3969 11.8183 15.5653L15.2808 11.3439C15.3242 7.97438 18.0729 5.25954 21.4533 5.25473C24.6119 5.28842 27.2305 7.6952 27.5294 10.8288C27.8477 14.2175 25.3594 17.2212 21.9645 17.5437L16.197 21.6593C15.845 23.4644 14.5526 24.9421 12.8069 25.5294C10.1305 26.4343 7.22268 24.9999 6.32091 22.3236L4.31483 21.6593C4.1661 21.612 1.43629 20.4764 0.696709 20.0593C2.61787 26.1286 8.29522 30.5276 15 30.5276ZM24.54 11.416C24.54 13.1174 23.1582 14.4967 21.4536 14.4967C19.7491 14.4967 18.3673 13.1174 18.3673 11.416C18.3673 9.71459 19.7491 8.33533 21.4536 8.33533C23.1582 8.33533 24.54 9.71459 24.54 11.416ZM23.5134 11.416C23.5134 12.5512 22.5914 13.4714 21.4542 13.4714C20.3169 13.4714 19.395 12.5512 19.395 11.416C19.395 10.2809 20.3169 9.36063 21.4542 9.36063C22.5914 9.36063 23.5134 10.2809 23.5134 11.416ZM9.82757 23.4307C10.2423 23.6329 10.7004 23.7388 11.1633 23.7388C11.5153 23.7388 11.8577 23.681 12.1953 23.5703C12.9717 23.3007 13.6034 22.7375 13.9602 22.0011C14.7028 20.4655 14.0566 18.6268 12.5232 17.8855C12.2628 17.7603 11.959 17.8662 11.8336 18.1213C11.7082 18.3813 11.8143 18.6845 12.0699 18.8097C12.1037 18.8241 12.1374 18.8386 12.1712 18.8578C13.1838 19.3777 13.5744 20.6148 13.0536 21.6256C12.5328 22.6364 11.2887 23.0263 10.2809 22.5065C10.0205 22.3813 9.71666 22.4872 9.59129 22.7423C9.46591 23.0023 9.572 23.3055 9.82757 23.4307Z" fill="#FFB548"/>
</g>
</svg>
