<svg width="21" height="21" viewBox="0 0 21 21" fill="none" xmlns="http://www.w3.org/2000/svg">
<g id="twitch icon" clip-path="url(#clip0_3627_98)">
<g id="twitch">
<path fill-rule="evenodd" clip-rule="evenodd" d="M20.5178 14.0112V1.18359H2.74004L0.517822 3.45946V15.4595H6.07338V19.1836H8.51782L11.1845 16.4939H17.8512L20.5178 14.0112ZM7.40674 13.8044H3.85118C3.60674 13.8044 3.40674 13.6182 3.40674 13.3906V3.25264C3.40674 3.02505 3.60674 2.83885 3.85118 2.83885H18.0734C18.3179 2.83885 18.5178 3.02505 18.5178 3.25264V11.1147C18.5178 11.2285 18.4734 11.3319 18.3901 11.4095L15.9456 13.6854C15.8623 13.763 15.7456 13.8044 15.629 13.8044H11.5456L8.10118 16.0078C8.02896 16.0544 7.94007 16.0802 7.85118 16.0802C7.77896 16.0802 7.71229 16.0647 7.64563 16.0337C7.49563 15.9613 7.40674 15.8216 7.40674 15.6664V13.8044Z" fill="white"/>
<path d="M14.0733 10.1837V6.04581H12.2955V10.1837H14.0733ZM9.62885 10.1837V6.04581H7.85107V10.1837H9.62885Z" fill="white"/>
</g>
</g>
<defs>
<clipPath id="clip0_3627_98">
<rect width="20" height="20" fill="white" transform="translate(0.517822 0.183594)"/>
</clipPath>
</defs>
</svg>
