<svg width="21" height="21" viewBox="0 0 21 21" fill="none" xmlns="http://www.w3.org/2000/svg">
<g id="twitter icon" clip-path="url(#clip0_3627_94)">
<path id="twitter" fill-rule="evenodd" clip-rule="evenodd" d="M21.5178 4.07859C20.7451 4.40059 19.9144 4.61559 19.0438 4.71359C19.9334 4.21359 20.6162 3.42159 20.938 2.47959C20.1044 2.94159 19.1827 3.27759 18.2011 3.45959C17.4164 2.67359 16.2958 2.18359 15.0573 2.18359C12.6782 2.18359 10.7479 3.99259 10.7479 6.22259C10.7479 6.53959 10.7859 6.84859 10.8599 7.14359C7.27925 6.97459 4.10446 5.36659 1.97927 2.92359C1.60841 3.52059 1.39649 4.21359 1.39649 4.95459C1.39649 6.35459 2.1572 7.59259 3.31276 8.31659C2.60703 8.29459 1.94328 8.11359 1.3615 7.81059C1.3615 7.82859 1.3615 7.84359 1.3615 7.86259C1.3615 9.81959 2.84594 11.4516 4.81718 11.8226C4.45632 11.9146 4.07447 11.9626 3.68262 11.9626C3.40472 11.9626 3.13483 11.9386 2.87193 11.8926C3.41972 13.4956 5.01111 14.6646 6.89639 14.6976C5.42195 15.7806 3.56466 16.4256 1.54543 16.4256C1.19756 16.4256 0.854694 16.4066 0.517822 16.3696C2.4241 17.5146 4.68923 18.1846 7.12231 18.1846C15.0473 18.1846 19.3806 12.0286 19.3806 6.69159C19.3806 6.51559 19.3756 6.34259 19.3676 6.16859C20.2093 5.59859 20.94 4.88759 21.5178 4.07859Z" fill="white"/>
</g>
<defs>
<clipPath id="clip0_3627_94">
<rect width="20" height="20" fill="white" transform="translate(0.517822 0.183594)"/>
</clipPath>
</defs>
</svg>
