<svg width="30" height="31" viewBox="0 0 30 31" fill="none" xmlns="http://www.w3.org/2000/svg">
<g id="xbox icon">
<path id="Vector" d="M9.91357 3.17896C11.4956 3.80017 13.0249 4.62064 14.4663 5.62279C14.6303 5.73414 14.8178 5.79275 15.0053 5.79275C15.1928 5.79275 15.3803 5.73414 15.5444 5.62279C16.9858 4.62064 18.5151 3.79431 20.0971 3.17309C20.4545 3.03244 20.6948 2.68081 20.6889 2.29402C20.6889 1.90722 20.4487 1.56145 20.0854 1.42666C16.9214 0.225253 13.0893 0.225253 9.93115 1.42666C9.57373 1.56145 9.32764 1.91308 9.32764 2.29402C9.32764 2.67495 9.55029 3.0383 9.91357 3.17896Z" fill="currentColor" fillRule="evenodd" clipRule="evenodd"/>
<path id="Vector_2" d="M23.502 3.18427C23.2031 2.97916 22.8223 2.96158 22.5 3.14325C20.748 4.15126 19.0547 5.30578 17.4551 6.57752C17.2441 6.74747 17.1152 6.99947 17.1035 7.26906C17.0918 7.53864 17.1973 7.80236 17.3906 7.9899C20.707 11.1487 25.3008 20.8362 26.3555 25.2902C24.0703 21.4222 18.9727 12.3208 15.6387 9.20889C15.2812 8.87484 14.7188 8.87484 14.3613 9.20889C11.0215 12.3208 5.94141 21.4281 3.65625 25.3019C4.71094 20.8479 9.29297 11.1487 12.6094 7.9899C12.8086 7.80236 12.9141 7.53864 12.9023 7.26906C12.8906 6.99947 12.7617 6.74747 12.5508 6.57752C10.9512 5.30578 9.25195 4.15126 7.50586 3.14325C7.19531 2.96158 6.80273 2.97916 6.50391 3.18427C2.43164 5.99146 0 10.6037 0 15.5265C0 19.1249 1.29492 22.5943 3.65625 25.3019C6.48047 28.6189 10.6113 30.5295 15 30.5295C19.3887 30.5295 23.5254 28.6248 26.3555 25.296C28.7051 22.6002 30 19.1307 30 15.5265C30 10.6037 27.5684 5.99146 23.502 3.18427Z" fill="currentColor" fillRule="evenodd" clipRule="evenodd"/>
</g>
</svg>
