<svg width="21" height="21" viewBox="0 0 21 21" fill="none" xmlns="http://www.w3.org/2000/svg">
<g id="youtube icon" clip-path="url(#clip0_3627_96)">
<path id="youtube" d="M16.3694 3.18359H4.67057C2.3794 3.18359 0.517822 5.02536 0.517822 7.29215V13.075C0.517822 15.3461 2.3794 17.1836 4.67057 17.1836H16.3651C18.6606 17.1836 20.5178 15.3418 20.5178 13.075V7.29215C20.5222 5.02536 18.6606 3.18359 16.3694 3.18359ZM13.5575 10.4691L8.08562 13.0493C7.93808 13.118 7.77319 13.0149 7.77319 12.8518V7.52827C7.77319 7.36513 7.94676 7.2621 8.08996 7.33508L13.5619 10.0784C13.7268 10.16 13.7224 10.3918 13.5575 10.4691Z" fill="#FF1313"/>
</g>
<defs>
<clipPath id="clip0_3627_96">
<rect width="20" height="20" fill="white" transform="translate(0.517822 0.183594)"/>
</clipPath>
</defs>
</svg>
